<svg height="512" viewBox="0 0 512 512" width="512" xmlns="http://www.w3.org/2000/svg"><g id="Layer_2" data-name="Layer 2"><g id="add"><path d="m256 0c-141.38 0-256 114.62-256 256s114.62 256 256 256 256-114.62 256-256-114.62-256-256-256zm140 270.61a18.27 18.27 0 0 1 -18.26 18.26h-88.87v88.87a18.27 18.27 0 0 1 -18.26 18.26h-29.22a18.27 18.27 0 0 1 -18.26-18.26v-88.87h-88.87a18.27 18.27 0 0 1 -18.26-18.26v-29.22a18.27 18.27 0 0 1 18.26-18.26h88.87v-88.87a18.27 18.27 0 0 1 18.26-18.26h29.22a18.27 18.27 0 0 1 18.26 18.26v88.87h88.87a18.27 18.27 0 0 1 18.26 18.26z"/></g></g></svg>