<svg width="164" height="103" viewBox="0 0 164 103" fill="none" xmlns="http://www.w3.org/2000/svg">
<g clip-path="url(#clip0_26_538)">
<path d="M163.59 25.0693C163.973 25.2788 164.044 25.5787 163.979 25.8795C163.842 26.4942 163.143 27.0101 162.32 27.1442C159.695 27.6021 157.112 28.2767 154.598 29.1614C154.105 29.3383 153.64 29.5031 153.204 29.668L151.988 30.1737L151.43 30.4074L151.165 30.521L150.912 30.6402L149.978 31.091L149.135 31.5007L148.384 31.904L147.041 32.6257C146.825 32.7496 146.613 32.8697 146.401 32.988C146.39 33.0526 146.366 33.1143 146.331 33.1696C146.271 33.2674 146.183 33.3442 146.078 33.3894C146.043 33.4043 146.005 33.4097 145.967 33.4052L145.874 33.3941L145.688 33.3745C145.513 33.4676 145.338 33.5607 145.156 33.6539C144.941 33.7731 144.72 33.8932 144.489 34.0143L143.425 34.6476C143.158 34.7984 142.868 34.9996 142.519 35.2166L141.36 35.9476C140.939 36.227 140.485 36.552 139.985 36.8957L139.603 37.1592L139.406 37.2961L139.211 37.4423L138.392 38.0542C138.25 38.1622 138.104 38.2693 137.957 38.3792C137.957 38.6102 137.843 38.6809 137.693 38.667C137.661 38.6641 137.63 38.6582 137.6 38.6493L137.515 38.7145L136.604 39.4502L136.12 39.8395L135.875 40.036L135.632 40.2464L135.14 40.672C134.975 40.8173 134.807 40.9738 134.639 41.1256L132.561 43.0254L131.948 43.3765L131.789 43.4696L131.71 43.5152C131.686 43.5274 131.649 43.5544 131.643 43.546L131.491 43.5357L130.853 43.491L130.517 43.465L130.345 43.451L130.259 43.4445H130.215C130.2 43.4445 130.195 43.437 130.172 43.4268C130.133 43.4072 130.07 43.37 130.025 43.3402C129.998 43.3229 129.971 43.3039 129.947 43.2834C129.906 43.2544 129.867 43.2233 129.83 43.1902L129.77 43.1381L129.71 43.0757L129.649 43.0133C129.629 42.9919 129.608 42.963 129.588 42.9388L129.528 42.8605C129.505 42.834 129.485 42.8053 129.467 42.7749C129.428 42.7097 129.389 42.6426 129.35 42.5765C129.327 42.539 129.309 42.4986 129.297 42.4564L129.247 42.3241C129.202 42.2299 129.175 42.1283 129.167 42.0243C129.155 41.8985 129.142 41.7737 129.129 41.6517L129.119 41.5586C129.119 41.5232 129.132 41.4739 129.137 41.432L129.179 41.1703L129.266 40.6441C129.303 40.4578 129.34 40.2716 129.378 40.0853C129.681 38.5953 130.083 36.9814 130.552 35.3917C131.02 33.7923 131.581 32.2219 132.234 30.6887C132.757 29.45 133.37 28.2513 134.068 27.1023C134.557 26.3208 135.102 25.576 135.7 24.8737L135.846 24.708C133.93 24.6633 131.393 24.6009 128.134 24.6148C127.495 24.5897 126.856 24.5841 126.217 24.5757L125.259 24.5627H124.301C122.13 24.5366 117.576 24.4817 112.818 24.7732C110.439 24.911 108.01 25.1075 105.802 25.344C103.593 25.5806 101.614 25.8423 100.117 26.0565C98.8072 26.2353 97.5091 26.4746 96.2147 26.7363C94.9267 27.0157 93.6416 27.323 92.3844 27.7048C90.6622 28.2074 88.968 28.8015 87.3089 29.4845C85.2851 30.3216 83.3307 31.3181 81.464 32.4646C80.4481 33.0939 79.467 33.7778 78.5249 34.5135C78.2771 34.7065 78.0314 34.9037 77.788 35.1048L78.0445 35.2231L78.3232 35.3628L78.8752 35.6422L79.4262 35.9215C79.6121 36.0147 79.7877 36.1208 79.9689 36.2205L80.5106 36.5222C80.69 36.6256 80.874 36.7187 81.0487 36.8296L82.108 37.4815C82.2855 37.5867 82.4583 37.7031 82.633 37.8186C82.8077 37.9341 82.9824 38.0458 83.1524 38.1659C85.9152 40.0519 88.3763 42.3473 90.4516 44.9736C92.5182 47.6064 94.1796 50.6107 95.1637 53.8739C95.5205 55.0098 95.7898 56.1714 95.9693 57.3485C96.0186 57.6614 96.052 57.9799 96.0938 58.3022C96.1357 58.6244 96.1561 58.9541 96.1747 59.2875C96.1821 59.4551 96.1905 59.6246 96.1979 59.7941L96.2091 60.0502V60.8269C96.2091 61.001 96.1961 61.1761 96.1896 61.3521C96.1314 62.8268 95.8911 64.2886 95.474 65.704C95.4174 65.8903 95.3607 66.0765 95.304 66.2628C95.2473 66.449 95.1693 66.6297 95.1024 66.8141L94.9992 67.0935C94.9639 67.1866 94.9212 67.2797 94.8821 67.3682L94.6424 67.9177C94.556 68.1039 94.4565 68.279 94.3636 68.4597L94.2233 68.7316C94.1759 68.8247 94.1202 68.9086 94.0691 68.998C93.9631 69.1749 93.8563 69.3518 93.7503 69.5297C93.6444 69.7076 93.5143 69.8743 93.3954 70.0466L93.2151 70.3046C93.15 70.3884 93.0831 70.4703 93.0172 70.5532C92.8834 70.719 92.7505 70.8847 92.6148 71.0486L92.1799 71.4947C92.1056 71.573 92.035 71.654 91.956 71.7285L91.7153 71.9483C91.5536 72.0935 91.3966 72.2453 91.2284 72.385C91.0602 72.5247 90.8892 72.6644 90.7099 72.7911L90.4432 72.9857L90.1691 73.172C89.9832 73.2977 89.7974 73.4057 89.6115 73.5221C88.8475 73.9645 88.0405 74.3277 87.203 74.6062C86.3669 74.8795 85.5074 75.075 84.6355 75.1901C82.8991 75.4131 81.1379 75.3483 79.4225 74.9982C78.5661 74.8274 77.7247 74.5886 76.9062 74.2839C76.4954 74.134 76.0921 73.9608 75.6982 73.7782C75.3042 73.5957 74.9176 73.4011 74.545 73.1822C74.1631 72.9783 73.8016 72.7417 73.4373 72.5136C73.0852 72.2677 72.7246 72.0312 72.391 71.7629L72.1373 71.5674L72.01 71.4742L71.8883 71.3709L71.4014 70.9574C71.2416 70.8177 71.0892 70.6696 70.9368 70.5262L70.7054 70.3092L70.4833 70.0838C69.3189 68.9048 68.3012 67.589 67.4522 66.165C67.2496 65.8148 67.0442 65.4675 66.863 65.1099C66.6818 64.7522 66.5043 64.3965 66.3334 64.0389C65.3839 61.9618 64.7425 59.7568 64.4294 57.4938C64.4006 57.315 64.3811 57.1353 64.3615 56.9565L64.303 56.4219L64.264 55.8911C64.2519 55.7151 64.2361 55.54 64.2324 55.3649C64.2212 55.0147 64.2036 54.6683 64.2101 54.3247C64.2101 54.1533 64.2101 53.9829 64.2101 53.8134C64.2101 53.6439 64.224 53.4744 64.2305 53.3068C64.2565 52.6353 64.3234 51.9797 64.4052 51.3436C64.4461 51.0251 64.5037 50.7131 64.553 50.4039C64.6022 50.0948 64.6728 49.8014 64.7323 49.5062C64.9767 48.4073 65.2955 47.3263 65.6866 46.2709C66.0215 45.3724 66.4071 44.4937 66.8417 43.6391C67.7468 41.7588 68.8422 39.9766 70.1107 38.3205C70.6236 37.6435 71.1886 36.9599 71.801 36.2773C71.3559 36.1236 70.9238 35.9746 70.5 35.8489L69.7297 35.6105C69.4788 35.5323 69.2298 35.468 68.9863 35.3991C67.061 34.858 65.5184 34.5209 64.5176 34.33C63.0615 34.0404 61.5952 33.7815 60.127 33.5198C59.7405 33.4537 59.3242 33.3754 58.8763 33.3046L57.4499 33.0765C56.4473 32.9238 55.3378 32.7738 54.1363 32.649C52.9348 32.5242 51.6441 32.4292 50.28 32.3957C49.5979 32.3799 48.8982 32.3762 48.1845 32.4013C47.8268 32.4078 47.4681 32.4311 47.1039 32.4497C46.7396 32.4684 46.3726 32.5 46.0046 32.5429C45.6366 32.5857 45.2658 32.6267 44.8895 32.6732C44.5132 32.7198 44.1461 32.7859 43.7679 32.8595C43.0079 32.9995 42.256 33.1805 41.5155 33.4015C40.0222 33.8541 38.5419 34.4781 37.1843 35.3525C35.801 36.2293 34.5731 37.3308 33.551 38.612C32.5124 39.9296 31.6759 41.3951 31.069 42.9602C30.628 44.095 30.2884 45.2668 30.0543 46.4618C29.8269 47.6018 29.6794 48.7563 29.6129 49.9169C29.4956 52.1786 29.6252 54.4464 29.9995 56.6799L30.0683 57.098L30.1463 57.5162C30.1946 57.7955 30.2597 58.0749 30.3182 58.3543C30.3768 58.6337 30.4381 58.9131 30.4976 59.1999C30.557 59.4868 30.6351 59.7643 30.7039 60.0483C30.834 60.6173 30.9966 61.1873 31.149 61.7647C31.2224 62.0534 31.3125 62.3421 31.3952 62.6336C31.4779 62.9251 31.5615 63.2184 31.6507 63.5127C32.3579 65.8698 33.197 68.3377 34.09 71.0654C34.5434 72.4549 34.9895 73.8499 35.4039 75.2497C35.8183 76.6494 36.2003 78.0566 36.5339 79.4656C37.2094 82.2837 37.6294 85.1772 37.5263 88.0334C37.4821 89.4529 37.2776 90.8629 36.9167 92.2363C36.5595 93.5866 36.0066 94.8771 35.2757 96.0667C34.5692 97.2124 33.6889 98.2408 32.6664 99.1148C31.7056 99.9352 30.6439 100.629 29.507 101.178C29.3713 101.248 29.2338 101.311 29.0963 101.371C28.9588 101.432 28.8222 101.497 28.6846 101.558C28.4059 101.668 28.1345 101.784 27.8567 101.879C27.3066 102.082 26.7546 102.243 26.2092 102.387C25.1588 102.654 24.0885 102.834 23.0089 102.926C21.1214 103.085 19.2211 102.989 17.3592 102.641C15.9138 102.349 14.4939 101.942 13.1126 101.425C11.9492 100.974 11.0172 100.56 10.336 100.215C9.1002 99.616 7.90065 98.945 6.74364 98.2049C6.48624 98.0456 6.24185 97.8827 6.00676 97.7243C5.77166 97.566 5.54214 97.4142 5.32377 97.2587C4.89168 96.9495 4.48746 96.6664 4.11577 96.3852C2.64666 95.2769 1.67282 94.4034 1.02979 93.7478C-0.246969 92.4356 -0.167055 91.9876 0.360748 91.9178C1.19706 91.8042 3.08154 92.7057 4.85916 93.935C6.61726 95.141 8.30289 96.2185 9.94948 97.1013C11.4865 97.9425 13.0906 98.6543 14.7452 99.2293L15.0342 99.3308L15.3242 99.4174L15.8975 99.5906C16.0833 99.6521 16.2766 99.6968 16.4662 99.7434L17.0284 99.884C17.742 100.055 18.4658 100.179 19.1953 100.257C20.5327 100.401 21.882 100.395 23.218 100.238C25.7269 99.9427 27.8372 99.1464 29.4438 98.1108C30.1988 97.629 30.8941 97.0591 31.5151 96.4131C32.0589 95.8427 32.5325 95.2089 32.9256 94.5254C33.0186 94.3633 33.1115 94.2022 33.1979 94.0448C33.2843 93.8875 33.3503 93.7152 33.4256 93.5541C33.4637 93.474 33.5008 93.3939 33.5389 93.3147C33.577 93.2356 33.6012 93.1499 33.6319 93.0679L33.8177 92.5855C33.8725 92.4235 33.9171 92.2586 33.9673 92.0994C34.0175 91.9401 34.0723 91.7837 34.1039 91.6207C34.1355 91.4577 34.1792 91.3013 34.2154 91.1439C34.2331 91.0647 34.2554 90.9874 34.2684 90.9083C34.2814 90.8291 34.2953 90.749 34.3093 90.6708C34.5171 89.4719 34.6027 88.255 34.5648 87.0388C34.5307 85.8702 34.4251 84.7049 34.2489 83.5493C34.2052 83.2559 34.1625 82.9616 34.1067 82.6646C34.0509 82.3675 34.0045 82.0667 33.9413 81.7631C33.9116 81.6113 33.8818 81.4585 33.8484 81.3039C33.8149 81.1494 33.7805 80.9929 33.7471 80.8383C33.6783 80.5226 33.6096 80.2032 33.5389 79.8772C33.4683 79.5513 33.3243 79.0633 33.1515 78.4049L32.8392 77.2966C32.7259 76.8897 32.5837 76.4445 32.4406 75.964C32.147 75.0029 31.7901 73.9002 31.385 72.6719L30.0311 68.6152C29.547 67.14 29.0359 65.5485 28.5443 63.8414C28.0528 62.1344 27.5984 60.3082 27.2397 58.3748C26.8635 56.3557 26.659 54.3082 26.6283 52.2544C26.5914 50.0822 26.7871 47.9124 27.2118 45.782C27.4351 44.6802 27.7328 43.595 28.1029 42.5337C28.483 41.4521 28.9491 40.4029 29.4968 39.3962C30.0522 38.3766 30.6998 37.4102 31.4314 36.5092C32.1665 35.6055 32.9882 34.7761 33.8846 34.0329C34.7693 33.3008 35.72 32.6526 36.7243 32.0968C37.7041 31.5568 38.7262 31.098 39.7806 30.725C41.8528 29.9865 43.9463 29.5795 45.9572 29.3662C47.8784 29.1744 49.8106 29.1174 51.7398 29.1958C53.5704 29.2666 55.2978 29.4221 56.9017 29.6168C57.3031 29.6633 57.6962 29.7164 58.0818 29.7667L59.2108 29.9259C59.5825 29.9753 59.9412 30.0331 60.2962 30.088C60.6511 30.1429 60.9968 30.1942 61.336 30.251C62.0134 30.3692 62.6601 30.4698 63.2725 30.59L64.1636 30.7576C64.4526 30.8116 64.7314 30.874 64.9999 30.928C65.7907 31.09 66.5796 31.28 67.3657 31.4654L68.544 31.769C68.9371 31.8621 69.3283 31.9804 69.7195 32.0921C70.5028 32.3063 71.2787 32.5578 72.0565 32.8036C72.8278 33.0728 73.6027 33.3289 74.3656 33.6306L74.4065 33.6464C74.8222 33.2702 75.2515 32.8998 75.6944 32.5354C76.252 32.0698 76.8374 31.6283 77.4349 31.1869C78.0324 30.7455 78.6559 30.3236 79.2934 29.9185C79.4513 29.8142 79.613 29.7155 79.7756 29.6158C79.9382 29.5162 80.099 29.4137 80.2635 29.3187L81.2559 28.7497C81.5858 28.5542 81.9268 28.3772 82.2669 28.2021L82.777 27.9349C82.948 27.8417 83.1171 27.7551 83.2918 27.675L84.3344 27.1777L84.5955 27.0539L84.8604 26.9393L85.39 26.7084C86.0925 26.3917 86.8127 26.1226 87.5273 25.8376C87.885 25.7026 88.2465 25.5778 88.6052 25.4474L89.1423 25.2546L89.6831 25.0768L90.761 24.7275L91.838 24.409C92.0164 24.3578 92.1948 24.3019 92.3732 24.2535L92.9094 24.1101C93.2662 24.017 93.6202 23.9238 93.9733 23.8307L95.0289 23.5774C95.2046 23.5355 95.3783 23.4917 95.5521 23.4526L96.0734 23.3399L97.1039 23.1173L98.1205 22.9208C98.7914 22.7839 99.453 22.6806 100.099 22.5651C102.685 22.1311 105.045 21.8573 107.04 21.6552C107.289 21.6264 107.533 21.6031 107.771 21.5835L108.467 21.522L109.745 21.4112L111.804 21.2659L113.57 21.1728L114.127 21.1514L115.669 21.1225C116.98 21.0983 118.814 21.1104 120.899 21.1728C122.985 21.251 125.322 21.3963 127.638 21.6263C129.955 21.8564 132.248 22.1851 134.253 22.5409C134.682 22.6191 135.096 22.6986 135.496 22.7793L135.372 22.5763C135.314 22.4831 135.264 22.39 135.21 22.2913L134.891 21.7204L134.739 21.4289C134.687 21.3358 134.64 21.2361 134.591 21.1393C133.782 19.6036 133.131 18.0167 132.547 16.4158L132.071 15.1632C131.978 14.9435 131.914 14.7116 131.835 14.4769C131.756 14.2422 131.678 14.0001 131.597 13.7542C131.516 13.5083 131.434 13.2569 131.351 13.0008C131.307 12.8732 131.271 12.7428 131.235 12.6115C131.198 12.4802 131.161 12.348 131.123 12.2148C130.975 11.6802 130.822 11.1289 130.666 10.5655C130.529 9.99741 130.398 9.41628 130.262 8.82585L130.059 7.93368C130.003 7.63194 129.948 7.32897 129.892 7.02475C129.781 6.41662 129.67 5.80289 129.557 5.18732C129.473 4.56988 129.387 3.95058 129.303 3.33407C129.262 3.02582 129.22 2.71756 129.179 2.41116L129.148 2.18114V2.1532V2.12434C129.148 2.08708 129.142 2.04983 129.141 2.01164C129.136 1.93628 129.136 1.86071 129.141 1.78535C129.17 1.3623 129.338 0.960823 129.619 0.643578C129.9 0.326332 130.278 0.111145 130.693 0.0316086C131.109 -0.0479355 131.539 0.0126343 131.917 0.203865C132.294 0.395103 132.598 0.706238 132.781 1.08874L132.834 1.19584L132.927 1.38862L133.298 2.1532C133.424 2.40465 133.558 2.65051 133.684 2.89822L133.875 3.27074C133.939 3.39274 134.009 3.51008 134.074 3.62928L134.469 4.33241C134.6 4.56429 134.741 4.78687 134.872 5.00945L135.07 5.34005L135.162 5.50396L135.265 5.66322C136.33 7.36653 137.363 8.76904 138.087 9.7739L138.746 10.545C138.995 10.8244 139.276 11.1215 139.573 11.4409C139.869 11.7603 140.207 12.0798 140.549 12.4243L141.094 12.9328C141.28 13.1042 141.465 13.2839 141.663 13.4534C144.744 16.18 148.228 18.4106 151.992 20.0655C152.677 20.3533 153.232 20.5926 153.627 20.7342L154.24 20.9661C154.24 20.9661 154.306 20.9959 154.425 21.0452L154.955 21.252L155.327 21.3991L155.534 21.4829L155.757 21.5649L156.764 21.9374C157.129 22.0622 157.516 22.1982 157.914 22.3406C158.315 22.4682 158.727 22.6061 159.138 22.7439C159.548 22.8817 159.965 23.0028 160.365 23.1313C160.766 23.2598 161.158 23.3716 161.523 23.4945C161.888 23.6174 162.233 23.7161 162.538 23.8298L162.966 23.9909C163.099 24.0421 163.221 24.0943 163.33 24.1464C163.766 24.3559 164.003 24.5701 163.928 24.7787C163.886 24.8747 163.78 24.9725 163.59 25.0693ZM70.7602 43.3355L70.5288 43.7537C70.3727 44.033 70.2361 44.3124 70.0902 44.5983C69.8115 45.1683 69.5504 45.7419 69.3227 46.3268C69.095 46.9116 68.8869 47.4993 68.6973 48.0888C68.5226 48.6829 68.3554 49.2752 68.2327 49.8722C68.1101 50.4691 68.0041 51.0661 67.9223 51.6481C67.9066 51.7953 67.8917 51.9415 67.8759 52.0877C67.8601 52.2339 67.8424 52.3801 67.835 52.5273C67.8183 52.8206 67.7913 53.1112 67.7895 53.4027C67.691 56.6077 68.3675 59.7891 69.7613 62.6755C70.1412 63.4641 70.5759 64.225 71.0622 64.9525C71.4852 65.5756 71.948 66.1707 72.4477 66.734C73.3712 67.7779 74.43 68.6931 75.5959 69.4552L76.0336 69.7346L76.4834 69.9888C76.632 70.0773 76.7872 70.1528 76.9405 70.2291C77.0939 70.3055 77.2472 70.3902 77.4052 70.4564C78.827 71.109 80.354 71.5011 81.9138 71.6139C82.9573 71.6911 84.0065 71.6253 85.0323 71.4184C86.1735 71.1929 87.2623 70.7544 88.2418 70.1257C88.4968 69.9598 88.7428 69.7805 88.9787 69.5884L89.3263 69.2783C89.3839 69.2252 89.4452 69.1768 89.5009 69.1209L89.6654 68.9486C90.1236 68.4804 90.5287 67.9629 90.8734 67.4055C91.2457 66.817 91.5592 66.1931 91.8092 65.5429C92.0785 64.8595 92.2875 64.1536 92.4336 63.4335L92.4912 63.1542L92.5191 63.0154L92.5405 62.8757C92.5702 62.6894 92.599 62.5032 92.6334 62.3123C92.6724 61.9314 92.7217 61.5505 92.7365 61.1631L92.7542 60.8725C92.7598 60.7794 92.7542 60.6779 92.7598 60.581C92.7598 60.3864 92.77 60.1908 92.7598 59.9952C92.7495 59.7997 92.7477 59.6041 92.7412 59.4076C92.7347 59.2111 92.7124 59.0109 92.6994 58.8125C92.4392 55.6275 91.3148 52.4276 89.5957 49.6096C88.7421 48.2044 87.7607 46.8813 86.664 45.6572C86.1241 45.0491 85.5564 44.4726 84.9765 43.9203C84.6885 43.641 84.3902 43.3783 84.0956 43.1139C83.801 42.8494 83.4972 42.5989 83.1905 42.3558C82.5819 41.8641 81.9649 41.3984 81.3377 40.97C81.1825 40.8602 81.0254 40.7559 80.8675 40.6525C80.7095 40.5491 80.5571 40.442 80.3954 40.3461L79.4495 39.7603C79.3705 39.7128 79.2924 39.6625 79.2134 39.6169L78.9681 39.4865L78.4914 39.2211L78.0194 38.9575C77.8633 38.8709 77.7016 38.7946 77.5436 38.7135L76.606 38.2386L75.6768 37.8093C75.5235 37.7394 75.372 37.6668 75.2196 37.5997L75.1174 37.5569C73.5396 39.178 72.1581 40.9801 71.0018 42.9257L70.7602 43.3355ZM153.862 26.6087C153.339 26.2278 152.682 25.7231 151.869 25.074L151.364 24.6288L151.237 24.518L151.174 24.4621C151.169 24.4586 151.163 24.4557 151.157 24.4537C151.14 24.446 151.123 24.4395 151.105 24.4342C151.057 24.4088 151.006 24.3876 150.954 24.3708C150.944 24.3708 150.94 24.3652 150.931 24.3708C150.923 24.379 150.919 24.3893 150.918 24.4002C150.917 24.4111 150.919 24.422 150.925 24.4314L150.979 24.5394C150.978 24.5221 150.975 24.5049 150.971 24.4882C151.148 25.033 151.321 25.5647 151.485 26.0714L151.794 27.0287C151.823 27.1218 151.854 27.215 151.88 27.3025C152.572 27.0446 153.235 26.8145 153.859 26.6087H153.862ZM148.872 28.5029L149.572 28.2049L139.276 17.1124C139.539 17.5389 139.818 17.985 140.112 18.4441C141.282 20.2862 142.677 22.3434 144.072 24.3233C144.772 25.3124 145.471 26.279 146.142 27.1964L147.146 28.5542C147.274 28.7396 147.34 28.9618 147.332 29.1874C147.846 28.9444 148.358 28.7106 148.869 28.5029H148.872ZM139.208 26.0639L139.091 26.1729L138.968 26.2884C138.928 26.3275 138.891 26.3666 138.854 26.4048L138.576 26.6907L138.369 26.9272C138.303 27.0054 138.235 27.0781 138.174 27.1544L137.991 27.3798L137.822 27.5959C137.769 27.6667 137.72 27.7393 137.67 27.8073C137.621 27.8753 137.569 27.9516 137.521 28.0196L137.59 28.0531L138.223 28.3633L139.574 29.0254L142.955 30.6784L143.065 30.7324L143.088 30.7436H143.095L143.108 30.7492L143.132 30.7585L143.153 30.766C143.158 30.7716 143.171 30.766 143.161 30.7529L143.124 30.7147L143.117 30.7073L143.078 30.6607L141.858 29.2135L139.208 26.0639ZM142.786 27.824C142.831 27.8958 142.893 27.987 142.972 28.1034C143.131 28.3279 143.365 28.6398 143.663 29.0226L143.897 29.3197L144.022 29.4771L144.291 29.8058L144.808 30.4288L145.313 30.1662L145.658 29.9883L145.623 29.9632L145.616 29.9576L145.59 29.9362L145.539 29.8924L145.437 29.8067C144.895 29.3532 144.438 28.9798 144.275 28.8652C144.115 28.7487 143.963 28.6224 143.818 28.4871L143.438 28.1444L143.199 27.9321L143.068 27.8147C143.026 27.7752 142.982 27.7382 142.935 27.7039C142.848 27.648 142.738 27.6881 142.734 27.7318C142.744 27.7647 142.759 27.7959 142.778 27.824H142.786ZM142.061 31.9217L140.426 31.1487L139.231 30.5723C139.082 30.5005 138.931 30.426 138.766 30.3422L138.427 30.1681C138.37 30.1392 138.313 30.1085 138.256 30.0815C138.242 30.0759 138.226 30.0732 138.211 30.0735C138.196 30.0738 138.181 30.0771 138.167 30.0833C138.153 30.0894 138.14 30.0982 138.13 30.1093C138.119 30.1203 138.111 30.1333 138.105 30.1476C138.099 30.1606 138.096 30.1747 138.096 30.189C138.096 30.2033 138.099 30.2175 138.105 30.2305C138.119 30.2538 138.138 30.2752 138.153 30.2975C138.186 30.3413 138.219 30.3841 138.246 30.427L138.431 30.6719C138.529 30.801 138.626 30.9296 138.72 31.0575C138.943 31.348 139.162 31.6345 139.377 31.917L140.192 32.9787L140.229 33.0253L141.617 32.1703L142.061 31.9217ZM136.096 34.3346C136.112 34.3738 136.136 34.4064 136.154 34.4408L136.35 34.7882L136.365 34.8133C136.431 34.9279 136.492 35.0378 136.551 35.1467L136.594 35.2277L136.606 35.2482L136.626 35.2846L136.666 35.3572L136.739 35.4876L137.052 35.2408C137.262 35.0778 137.473 34.9111 137.693 34.7491L137.6 34.7118L137.218 34.5526L137.043 34.4771L136.393 34.1977C136.345 34.1723 136.294 34.1547 136.241 34.1456C136.216 34.1448 136.192 34.1501 136.169 34.1609C136.147 34.1718 136.128 34.188 136.113 34.208C136.098 34.2259 136.088 34.2472 136.084 34.2701C136.08 34.2929 136.082 34.3164 136.089 34.3384L136.096 34.3346ZM133.9 35.2222C133.796 35.5015 133.699 35.7809 133.596 36.0706L133.525 36.2801L133.492 36.3639C133.469 36.4235 133.446 36.484 133.423 36.5446C133.33 36.7923 133.237 37.0689 133.144 37.3678C133.051 37.6668 132.958 37.9881 132.878 38.3215C132.837 38.4891 132.798 38.6586 132.76 38.83C132.753 38.8507 132.753 38.8735 132.76 38.8942C132.765 38.9032 132.772 38.9108 132.78 38.9159C132.789 38.921 132.799 38.9235 132.809 38.9231C132.828 38.9231 132.84 38.9045 132.854 38.8933L132.896 38.857L133.064 38.707C133.331 38.4723 133.598 38.2051 133.859 37.9713C133.995 37.8447 134.127 37.7199 134.253 37.5988L134.439 37.4191L134.624 37.2514L134.711 37.1704L134.753 37.1304L134.858 37.0372L135.282 36.6722L135.71 36.3062L135.732 36.2876L135.667 36.1777C135.263 35.5043 134.884 34.8739 134.54 34.303C134.476 34.1943 134.428 34.077 134.398 33.9547C134.224 34.3613 134.055 34.7851 133.892 35.2259L133.9 35.2222ZM134.979 32.6025L135.02 32.5894C135.125 32.561 135.231 32.542 135.339 32.5326C135.37 32.5289 135.401 32.5267 135.432 32.5261H135.541C135.62 32.5299 135.7 32.5402 135.778 32.5568C135.972 32.6139 136.162 32.6842 136.346 32.7673L138.163 33.5067L138.665 33.7098L138.75 33.7423C138.832 33.7761 138.917 33.8035 139.003 33.8243L139.037 33.801C139.04 33.7925 139.04 33.7835 139.037 33.7749C139.031 33.7507 139.009 33.7349 138.994 33.7172L138.906 33.6241C138.867 33.5839 138.825 33.546 138.782 33.5105L138.064 32.6285L137.713 32.1927L137.168 31.5007C136.843 31.0882 136.517 30.6738 136.196 30.2528C135.9 30.7604 135.523 31.4439 135.125 32.283C135.071 32.3929 135.022 32.5019 134.972 32.6062L134.979 32.6025ZM143.577 26.5025C142.872 25.5247 142.176 24.5397 141.488 23.5476C140.651 22.3807 139.598 20.8776 138.486 19.1873C137.395 17.5222 136.24 15.6848 135.217 13.7859C135.778 15.5758 136.467 17.3228 137.278 19.0132L137.594 19.6474C137.645 19.7545 137.701 19.855 137.758 19.9566L137.925 20.2583C138.037 20.4585 138.143 20.6606 138.259 20.8534L138.604 21.4187C138.715 21.6049 138.837 21.7809 138.954 21.956L139.041 22.0864L139.169 22.2727C139.227 22.3537 139.29 22.4328 139.355 22.5111C139.42 22.5893 139.482 22.6666 139.541 22.7448L139.913 23.2105L140.006 23.3241L140.106 23.4368L140.306 23.6603C140.569 23.9527 140.813 24.2526 141.081 24.5208C142.486 25.9335 143.566 26.5063 143.566 26.5063L143.577 26.5025ZM134.308 10.4742C134.334 10.5869 134.362 10.6977 134.39 10.8123C134.445 11.0349 134.5 11.2612 134.557 11.4884L134.64 11.832C134.664 11.9205 134.691 12.009 134.717 12.0975C134.717 12.0835 134.725 12.0695 134.73 12.0555C134.809 11.8307 134.952 11.6341 135.141 11.4902C134.851 11.1562 134.571 10.8188 134.3 10.4779L134.308 10.4742ZM147.131 21.4243C146.895 21.2818 146.666 21.1262 146.434 20.981L145.734 20.5423C145.504 20.3915 145.272 20.2431 145.038 20.0972C144.497 19.7545 143.867 19.3372 143.18 18.8521C143.819 19.557 144.66 20.4734 145.596 21.4904L147.39 23.4265L148.319 24.4304L148.784 24.9333L149.017 25.1838L149.067 25.2332C149.185 25.3515 149.288 25.4539 149.372 25.534C149.376 25.54 149.382 25.5449 149.388 25.5482C149.395 25.5514 149.402 25.553 149.409 25.5526C149.418 25.5513 149.426 25.548 149.432 25.5429C149.439 25.5379 149.445 25.5313 149.448 25.5238C149.466 25.4893 149.438 25.4521 149.429 25.4195L149.36 25.2425L149.349 25.2164L149.341 25.1988L149.326 25.1708L149.315 25.1494L149.308 25.1298C149.297 25.0982 149.286 25.0665 149.276 25.0367C149.236 24.9166 149.197 24.7992 149.159 24.6856C148.849 23.7543 148.613 23.04 148.474 22.62C148.456 22.5427 148.435 22.4664 148.423 22.4012C148.41 22.336 148.414 22.2894 148.41 22.2382C148.409 22.2308 148.409 22.2233 148.41 22.2159C148.194 22.0957 147.994 21.9793 147.82 21.8657C147.592 21.7179 147.36 21.572 147.126 21.428L147.131 21.4243ZM156.343 25.276L155.824 25.1531C155.638 25.1094 155.452 25.0516 155.251 24.9967C154.852 24.8821 154.414 24.7657 153.976 24.6139C153.712 24.5264 153.44 24.437 153.167 24.342C153.552 24.7713 153.922 25.1932 154.252 25.5834C154.465 25.8358 154.661 26.0742 154.834 26.293C155.927 25.9531 156.865 25.697 157.596 25.5098L157.168 25.453C156.942 25.4241 156.669 25.3533 156.339 25.2798L156.343 25.276Z" fill="#516865"/>
</g>
<defs>
<clipPath id="clip0_26_538">
<rect width="164" height="103" fill="white" transform="matrix(1 0 0 -1 0 103)"/>
</clipPath>
</defs>
</svg>
