<svg width="27" height="13" viewBox="0 0 27 13" fill="none" xmlns="http://www.w3.org/2000/svg">
<path d="M6.3715 13C5.92991 13 5.5514 12.8395 5.23598 12.5185L0.441589 7.63951C0.147196 7.36132 0 6.99753 0 6.54815C0 6.31276 0.031542 6.09877 0.0946261 5.90617C0.15771 5.69218 0.273364 5.51029 0.441589 5.36049L5.23598 0.481482C5.5514 0.160494 5.92991 0 6.3715 0C6.83411 0 7.21262 0.160494 7.50701 0.481482C7.82243 0.78107 7.98014 1.17696 7.98014 1.66914C7.98014 2.09712 7.83294 2.48231 7.53855 2.82469L5.5514 4.84691H25.3914C25.875 4.84691 26.264 5.00741 26.5584 5.32839C26.8528 5.62798 27 6.01317 27 6.48395C27 6.95473 26.8528 7.35062 26.5584 7.67161C26.264 7.99259 25.875 8.15309 25.3914 8.15309H5.5514L7.53855 10.1432C7.83294 10.4642 7.98014 10.8601 7.98014 11.3309C7.98014 11.8016 7.82243 12.1975 7.50701 12.5185C7.21262 12.8395 6.83411 13 6.3715 13Z" fill="#1C4D48"/>
</svg>
