<svg width="164" height="103" viewBox="0 0 164 103" fill="none" xmlns="http://www.w3.org/2000/svg">
<g clip-path="url(#clip0_26_543)">
<path d="M163.59 77.9308C163.973 77.7212 164.044 77.4213 163.979 77.1205C163.842 76.5059 163.143 75.99 162.32 75.8559C159.695 75.398 157.112 74.7233 154.598 73.8387C154.105 73.6618 153.64 73.4969 153.204 73.3321L151.988 72.8264L151.43 72.5926L151.165 72.479L150.912 72.3598L149.978 71.9091L149.135 71.4993L148.384 71.0961L147.041 70.3743C146.825 70.2505 146.613 70.1303 146.401 70.0121C146.39 69.9475 146.366 69.8858 146.331 69.8305C146.271 69.7327 146.183 69.6558 146.078 69.6107C146.043 69.5958 146.005 69.5903 145.967 69.5948L145.874 69.606L145.688 69.6256C145.513 69.5324 145.338 69.4393 145.156 69.3462C144.941 69.227 144.72 69.1068 144.489 68.9858L143.425 68.3525C143.158 68.2016 142.868 68.0005 142.519 67.7835L141.36 67.0524C140.939 66.773 140.485 66.448 139.985 66.1044L139.603 65.8408L139.406 65.7039L139.211 65.5577L138.392 64.9459C138.25 64.8378 138.104 64.7307 137.957 64.6208C137.957 64.3899 137.843 64.3191 137.693 64.3331C137.661 64.3359 137.63 64.3419 137.6 64.3508L137.515 64.2856L136.604 63.5499L136.12 63.1606L135.875 62.9641L135.632 62.7536L135.14 62.328C134.975 62.1828 134.807 62.0263 134.639 61.8745L132.561 59.9747L131.948 59.6236L131.789 59.5304L131.71 59.4848C131.686 59.4727 131.649 59.4457 131.643 59.4541L131.491 59.4643L130.853 59.509L130.517 59.5351L130.345 59.5491L130.259 59.5556H130.215C130.2 59.5556 130.195 59.563 130.172 59.5733C130.133 59.5928 130.07 59.6301 130.025 59.6599C129.998 59.6772 129.971 59.6962 129.947 59.7167C129.906 59.7457 129.867 59.7768 129.83 59.8098L129.77 59.862L129.71 59.9244L129.649 59.9868C129.629 60.0082 129.608 60.0371 129.588 60.0613L129.528 60.1395C129.505 60.1661 129.485 60.1948 129.467 60.2252C129.428 60.2904 129.389 60.3574 129.35 60.4236C129.327 60.4611 129.309 60.5015 129.297 60.5437L129.247 60.6759C129.202 60.7702 129.175 60.8718 129.167 60.9758C129.155 61.1015 129.142 61.2263 129.129 61.3483L129.119 61.4414C129.119 61.4768 129.132 61.5262 129.137 61.5681L129.179 61.8298L129.266 62.356C129.303 62.5422 129.34 62.7285 129.378 62.9147C129.681 64.4048 130.083 66.0187 130.552 67.6084C131.02 69.2078 131.581 70.7782 132.234 72.3114C132.757 73.5501 133.37 74.7488 134.068 75.8978C134.557 76.6793 135.102 77.4241 135.7 78.1263L135.846 78.2921C133.93 78.3368 131.393 78.3992 128.134 78.3852C127.495 78.4104 126.856 78.416 126.217 78.4243L125.259 78.4374H124.301C122.13 78.4635 117.576 78.5184 112.818 78.2269C110.439 78.0891 108.01 77.8926 105.802 77.656C103.593 77.4195 101.614 77.1578 100.117 76.9436C98.8072 76.7648 97.5091 76.5255 96.2147 76.2638C94.9267 75.9844 93.6416 75.6771 92.3844 75.2952C90.6622 74.7926 88.968 74.1986 87.3089 73.5155C85.2851 72.6785 83.3307 71.682 81.464 70.5354C80.4481 69.9062 79.467 69.2222 78.5249 68.4866C78.2771 68.2935 78.0314 68.0964 77.788 67.8952L78.0445 67.777L78.3232 67.6373L78.8752 67.3579L79.4262 67.0785C79.6121 66.9854 79.7877 66.8792 79.9689 66.7796L80.5106 66.4778C80.69 66.3745 80.874 66.2813 81.0487 66.1705L82.108 65.5186C82.2855 65.4134 82.4583 65.297 82.633 65.1815C82.8077 65.066 82.9824 64.9542 83.1524 64.8341C85.9152 62.9481 88.3763 60.6527 90.4516 58.0264C92.5182 55.3937 94.1796 52.3894 95.1637 49.1261C95.5205 47.9903 95.7898 46.8287 95.9693 45.6515C96.0186 45.3386 96.052 45.0201 96.0938 44.6979C96.1357 44.3757 96.1561 44.046 96.1747 43.7126C96.1821 43.545 96.1905 43.3755 96.1979 43.206L96.2091 42.9499V42.1732C96.2091 41.999 96.1961 41.824 96.1896 41.6479C96.1314 40.1733 95.8911 38.7115 95.474 37.2961C95.4174 37.1098 95.3607 36.9235 95.304 36.7373C95.2473 36.551 95.1693 36.3704 95.1024 36.186L94.9992 35.9066C94.9639 35.8134 94.9212 35.7203 94.8821 35.6318L94.6424 35.0824C94.556 34.8961 94.4565 34.7211 94.3636 34.5404L94.2233 34.2684C94.1759 34.1753 94.1202 34.0915 94.0691 34.0021C93.9631 33.8252 93.8563 33.6482 93.7503 33.4703C93.6444 33.2925 93.5143 33.1258 93.3954 32.9535L93.2151 32.6955C93.15 32.6117 93.0831 32.5297 93.0172 32.4469C92.8834 32.2811 92.7505 32.1153 92.6148 31.9514L92.1799 31.5053C92.1056 31.4271 92.035 31.3461 91.956 31.2716L91.7153 31.0518C91.5536 30.9065 91.3966 30.7547 91.2284 30.615C91.0602 30.4753 90.8892 30.3356 90.7099 30.209L90.4432 30.0143L90.1691 29.8281C89.9832 29.7024 89.7974 29.5943 89.6115 29.4779C88.8475 29.0356 88.0405 28.6724 87.203 28.3939C86.3669 28.1205 85.5074 27.9251 84.6355 27.81C82.8991 27.587 81.1379 27.6518 79.4225 28.0018C78.5661 28.1726 77.7247 28.4115 76.9062 28.7161C76.4954 28.8661 76.0921 29.0393 75.6982 29.2218C75.3042 29.4044 74.9176 29.599 74.545 29.8178C74.1631 30.0218 73.8016 30.2583 73.4373 30.4865C73.0852 30.7324 72.7246 30.9689 72.391 31.2371L72.1373 31.4327L72.01 31.5258L71.8883 31.6292L71.4014 32.0427C71.2416 32.1824 71.0892 32.3304 70.9368 32.4739L70.7054 32.6909L70.4833 32.9162C69.3189 34.0952 68.3012 35.4111 67.4522 36.8351C67.2496 37.1852 67.0442 37.5326 66.863 37.8902C66.6818 38.2478 66.5043 38.6036 66.3334 38.9612C65.3839 41.0383 64.7425 43.2433 64.4294 45.5063C64.4006 45.6851 64.3811 45.8648 64.3615 46.0436L64.303 46.5782L64.264 47.109C64.2519 47.285 64.2361 47.4601 64.2324 47.6352C64.2212 47.9853 64.2036 48.3318 64.2101 48.6754C64.2101 48.8468 64.2101 49.0172 64.2101 49.1867C64.2101 49.3562 64.224 49.5257 64.2305 49.6933C64.2565 50.3648 64.3234 51.0204 64.4052 51.6564C64.4461 51.9749 64.5037 52.2869 64.553 52.5961C64.6022 52.9053 64.6728 53.1987 64.7323 53.4939C64.9767 54.5928 65.2955 55.6737 65.6866 56.7292C66.0215 57.6277 66.4071 58.5064 66.8417 59.361C67.7468 61.2413 68.8422 63.0235 70.1107 64.6795C70.6236 65.3566 71.1886 66.0401 71.801 66.7228C71.3559 66.8764 70.9238 67.0254 70.5 67.1511L69.7297 67.3896C69.4788 67.4678 69.2298 67.532 68.9863 67.601C67.061 68.142 65.5184 68.4792 64.5176 68.6701C63.0615 68.9597 61.5952 69.2186 60.127 69.4803C59.7405 69.5464 59.3242 69.6246 58.8763 69.6954L57.4499 69.9236C56.4473 70.0763 55.3378 70.2262 54.1363 70.351C52.9348 70.4758 51.6441 70.5708 50.28 70.6043C49.5979 70.6202 48.8982 70.6239 48.1845 70.5988C47.8268 70.5922 47.4681 70.569 47.1039 70.5503C46.7396 70.5317 46.3726 70.5 46.0046 70.4572C45.6366 70.4144 45.2658 70.3734 44.8895 70.3268C44.5132 70.2803 44.1461 70.2141 43.7679 70.1406C43.0079 70.0005 42.256 69.8196 41.5155 69.5986C40.0222 69.146 38.5419 68.522 37.1843 67.6475C35.801 66.7708 34.5731 65.6692 33.551 64.388C32.5124 63.0705 31.6759 61.6049 31.069 60.0399C30.628 58.9051 30.2884 57.7333 30.0543 56.5382C29.8269 55.3983 29.6794 54.2438 29.6129 53.0832C29.4956 50.8215 29.6252 48.5537 29.9995 46.3202L30.0683 45.902L30.1463 45.4839C30.1946 45.2045 30.2597 44.9251 30.3182 44.6457C30.3768 44.3664 30.4381 44.087 30.4976 43.8001C30.557 43.5133 30.6351 43.2358 30.7039 42.9517C30.834 42.3827 30.9966 41.8128 31.149 41.2354C31.2224 40.9467 31.3125 40.658 31.3952 40.3665C31.4779 40.075 31.5615 39.7817 31.6507 39.4874C32.3579 37.1303 33.197 34.6624 34.09 31.9347C34.5434 30.5452 34.9895 29.1501 35.4039 27.7504C35.8183 26.3507 36.2003 24.9435 36.5339 23.5345C37.2094 20.7164 37.6294 17.8229 37.5263 14.9667C37.4821 13.5471 37.2776 12.1372 36.9167 10.7638C36.5595 9.41344 36.0066 8.12292 35.2757 6.9334C34.5692 5.78766 33.6889 4.75928 32.6664 3.88531C31.7056 3.06484 30.6439 2.37127 29.507 1.82158C29.3713 1.75174 29.2338 1.68934 29.0963 1.62881C28.9588 1.56827 28.8222 1.50308 28.6846 1.44255C28.4059 1.33173 28.1345 1.21625 27.8567 1.12126C27.3066 0.918238 26.7546 0.757126 26.2092 0.612777C25.1588 0.346531 24.0885 0.166508 23.0089 0.0744949C21.1214 -0.0850051 19.2211 0.0108465 17.3592 0.359468C15.9138 0.651514 14.4939 1.05789 13.1126 1.57479C11.9492 2.02647 11.0172 2.43996 10.336 2.78546C9.1002 3.38402 7.90065 4.05509 6.74364 4.79517C6.48624 4.95442 6.24185 5.1174 6.00676 5.27572C5.77166 5.43403 5.54214 5.58583 5.32377 5.74136C4.89168 6.05054 4.48746 6.33365 4.11577 6.6149C2.64666 7.72313 1.67282 8.59667 1.02979 9.2523C-0.246969 10.5645 -0.167055 11.0124 0.360748 11.0823C1.19706 11.1959 3.08154 10.2944 4.85916 9.06511C6.61726 7.8591 8.30289 6.7816 9.94948 5.89874C11.4865 5.05758 13.0906 4.3458 14.7452 3.77076L15.0342 3.66925L15.3242 3.58264L15.8975 3.40942C16.0833 3.34796 16.2766 3.30326 16.4662 3.25669L17.0284 3.11607C17.742 2.9455 18.4658 2.82108 19.1953 2.74355C20.5327 2.59883 21.882 2.60508 23.218 2.76218C25.7269 3.0574 27.8372 3.85365 29.4438 4.88923C30.1988 5.37102 30.8941 5.94092 31.5151 6.58696C32.0589 7.15741 32.5325 7.79117 32.9256 8.47468C33.0186 8.63672 33.1115 8.79783 33.1979 8.95522C33.2843 9.11261 33.3503 9.28489 33.4256 9.446C33.4637 9.5261 33.5008 9.60619 33.5389 9.68534C33.577 9.7645 33.6012 9.85018 33.6319 9.93214L33.8177 10.4145C33.8725 10.5766 33.9171 10.7414 33.9673 10.9007C34.0175 11.0599 34.0723 11.2164 34.1039 11.3794C34.1355 11.5423 34.1792 11.6988 34.2154 11.8562C34.2331 11.9353 34.2554 12.0126 34.2684 12.0918C34.2814 12.1709 34.2953 12.251 34.3093 12.3293C34.5171 13.5281 34.6027 14.745 34.5648 15.9613C34.5307 17.1298 34.4251 18.2952 34.2489 19.4508C34.2052 19.7441 34.1625 20.0384 34.1067 20.3355C34.0509 20.6326 34.0045 20.9334 33.9413 21.237C33.9116 21.3888 33.8818 21.5415 33.8484 21.6961C33.8149 21.8507 33.7805 22.0072 33.7471 22.1618C33.6783 22.4775 33.6096 22.7969 33.5389 23.1228C33.4683 23.4488 33.3243 23.9368 33.1515 24.5952L32.8392 25.7034C32.7259 26.1104 32.5837 26.5556 32.4406 27.0361C32.147 27.9972 31.7901 29.0998 31.385 30.3282L30.0311 34.3849C29.547 35.86 29.0359 37.4516 28.5443 39.1586C28.0528 40.8657 27.5984 42.6919 27.2397 44.6253C26.8635 46.6444 26.659 48.6919 26.6283 50.7457C26.5914 52.9178 26.7871 55.0877 27.2118 57.2181C27.4351 58.3198 27.7328 59.4051 28.1029 60.4664C28.483 61.548 28.9491 62.5972 29.4968 63.6039C30.0522 64.6235 30.6998 65.5898 31.4314 66.4909C32.1665 67.3946 32.9882 68.224 33.8846 68.9671C34.7693 69.6993 35.72 70.3474 36.7243 70.9033C37.7041 71.4432 38.7262 71.902 39.7806 72.2751C41.8528 73.0136 43.9463 73.4205 45.9572 73.6338C47.8784 73.8257 49.8106 73.8826 51.7398 73.8042C53.5704 73.7335 55.2978 73.5779 56.9017 73.3833C57.3031 73.3367 57.6962 73.2837 58.0818 73.2334L59.2108 73.0741C59.5825 73.0247 59.9412 72.967 60.2962 72.9121C60.6511 72.8571 60.9968 72.8059 61.336 72.7491C62.0134 72.6308 62.6601 72.5302 63.2725 72.4101L64.1636 72.2425C64.4526 72.1885 64.7314 72.1261 64.9999 72.0721C65.7907 71.91 66.5796 71.72 67.3657 71.5347L68.544 71.2311C68.9371 71.138 69.3283 71.0197 69.7195 70.908C70.5028 70.6938 71.2787 70.4423 72.0565 70.1964C72.8278 69.9273 73.6027 69.6712 74.3656 69.3695L74.4065 69.3536C74.8222 69.7299 75.2515 70.1002 75.6944 70.4647C76.252 70.9303 76.8374 71.3717 77.4349 71.8132C78.0324 72.2546 78.6559 72.6765 79.2934 73.0816C79.4513 73.1859 79.613 73.2846 79.7756 73.3842C79.9382 73.4839 80.099 73.5863 80.2635 73.6813L81.2559 74.2503C81.5858 74.4459 81.9268 74.6228 82.2669 74.7979L82.777 75.0652C82.948 75.1583 83.1171 75.2449 83.2918 75.325L84.3344 75.8223L84.5955 75.9462L84.8604 76.0607L85.39 76.2917C86.0925 76.6083 86.8127 76.8775 87.5273 77.1625C87.885 77.2975 88.2465 77.4223 88.6052 77.5527L89.1423 77.7454L89.6831 77.9233L90.761 78.2725L91.838 78.591C92.0164 78.6423 92.1948 78.6981 92.3732 78.7466L92.9094 78.89C93.2662 78.9831 93.6202 79.0762 93.9733 79.1694L95.0289 79.4227C95.2046 79.4646 95.3783 79.5084 95.5521 79.5475L96.0734 79.6602L97.1039 79.8827L98.1205 80.0792C98.7914 80.2161 99.453 80.3195 100.099 80.435C102.685 80.869 105.045 81.1428 107.04 81.3448C107.289 81.3737 107.533 81.397 107.771 81.4166L108.467 81.478L109.745 81.5888L111.804 81.7341L113.57 81.8273L114.127 81.8487L115.669 81.8775C116.98 81.9018 118.814 81.8896 120.899 81.8273C122.985 81.749 125.322 81.6037 127.638 81.3737C129.955 81.1437 132.248 80.8149 134.253 80.4592C134.682 80.381 135.096 80.3015 135.496 80.2208L135.372 80.4238C135.314 80.5169 135.264 80.6101 135.21 80.7088L134.891 81.2797L134.739 81.5712C134.687 81.6643 134.64 81.7639 134.591 81.8608C133.782 83.3965 133.131 84.9834 132.547 86.5842L132.071 87.8368C131.978 88.0566 131.914 88.2885 131.835 88.5232C131.756 88.7579 131.678 89 131.597 89.2459C131.516 89.4917 131.434 89.7432 131.351 89.9993C131.307 90.1269 131.271 90.2572 131.235 90.3885C131.198 90.5199 131.161 90.6521 131.123 90.7853C130.975 91.3198 130.822 91.8711 130.666 92.4346C130.529 93.0027 130.398 93.5838 130.262 94.1742L130.059 95.0664C130.003 95.3681 129.948 95.6711 129.892 95.9753C129.781 96.5834 129.67 97.1972 129.557 97.8127C129.473 98.4302 129.387 99.0495 129.303 99.666C129.262 99.9742 129.22 100.283 129.179 100.589L129.148 100.819V100.847V100.876C129.148 100.913 129.142 100.95 129.141 100.988C129.136 101.064 129.136 101.139 129.141 101.215C129.17 101.638 129.338 102.039 129.619 102.356C129.9 102.674 130.278 102.889 130.693 102.968C131.109 103.048 131.539 102.987 131.917 102.796C132.294 102.605 132.598 102.294 132.781 101.911L132.834 101.804L132.927 101.611L133.298 100.847C133.424 100.595 133.558 100.35 133.684 100.102L133.875 99.7293C133.939 99.6073 134.009 99.49 134.074 99.3708L134.469 98.6677C134.6 98.4358 134.741 98.2132 134.872 97.9906L135.07 97.66L135.162 97.4961L135.265 97.3368C136.33 95.6335 137.363 94.231 138.087 93.2262L138.746 92.4551C138.995 92.1757 139.276 91.8786 139.573 91.5592C139.869 91.2397 140.207 90.9203 140.549 90.5757L141.094 90.0673C141.28 89.8959 141.465 89.7162 141.663 89.5467C144.744 86.82 148.228 84.5894 151.992 82.9345C152.677 82.6468 153.232 82.4074 153.627 82.2659L154.24 82.034C154.24 82.034 154.306 82.0042 154.425 81.9548L154.955 81.7481L155.327 81.6009L155.534 81.5171L155.757 81.4352L156.764 81.0627C157.129 80.9379 157.516 80.8019 157.914 80.6594C158.315 80.5318 158.727 80.394 159.138 80.2562C159.548 80.1183 159.965 79.9973 160.365 79.8688C160.766 79.7402 161.158 79.6285 161.523 79.5056C161.888 79.3826 162.233 79.2839 162.538 79.1703L162.966 79.0092C163.099 78.958 163.221 78.9058 163.33 78.8537C163.766 78.6441 164.003 78.4299 163.928 78.2213C163.886 78.1254 163.78 78.0276 163.59 77.9308ZM70.7602 59.6646L70.5288 59.2464C70.3727 58.967 70.2361 58.6876 70.0902 58.4017C69.8115 57.8318 69.5504 57.2581 69.3227 56.6733C69.095 56.0884 68.8869 55.5008 68.6973 54.9113C68.5226 54.3171 68.3554 53.7248 68.2327 53.1279C68.1101 52.5309 68.0041 51.934 67.9223 51.3519C67.9066 51.2048 67.8917 51.0586 67.8759 50.9123C67.8601 50.7661 67.8424 50.6199 67.835 50.4728C67.8183 50.1794 67.7913 49.8889 67.7895 49.5974C67.691 46.3923 68.3675 43.2109 69.7613 40.3246C70.1412 39.536 70.5759 38.7751 71.0622 38.0476C71.4852 37.4244 71.948 36.8293 72.4477 36.2661C73.3712 35.2222 74.43 34.307 75.5959 33.5448L76.0336 33.2655L76.4834 33.0112C76.632 32.9227 76.7872 32.8473 76.9405 32.7709C77.0939 32.6946 77.2472 32.6098 77.4052 32.5437C78.827 31.891 80.354 31.499 81.9138 31.3861C82.9573 31.309 84.0065 31.3748 85.0323 31.5817C86.1735 31.8072 87.2623 32.2457 88.2418 32.8743C88.4968 33.0402 88.7428 33.2196 88.9787 33.4117L89.3263 33.7218C89.3839 33.7749 89.4452 33.8233 89.5009 33.8792L89.6654 34.0515C90.1236 34.5196 90.5287 35.0372 90.8734 35.5946C91.2457 36.1831 91.5592 36.807 91.8092 37.4572C92.0785 38.1406 92.2875 38.8464 92.4336 39.5665L92.4912 39.8459L92.5191 39.9847L92.5405 40.1244C92.5702 40.3106 92.599 40.4969 92.6334 40.6878C92.6724 41.0687 92.7217 41.4496 92.7365 41.837L92.7542 42.1276C92.7598 42.2207 92.7542 42.3222 92.7598 42.419C92.7598 42.6137 92.77 42.8092 92.7598 43.0048C92.7495 43.2004 92.7477 43.396 92.7412 43.5925C92.7347 43.789 92.7124 43.9892 92.6994 44.1876C92.4392 47.3725 91.3148 50.5724 89.5957 53.3905C88.7421 54.7957 87.7607 56.1188 86.664 57.3429C86.1241 57.951 85.5564 58.5275 84.9765 59.0797C84.6885 59.3591 84.3902 59.6217 84.0956 59.8862C83.801 60.1507 83.4972 60.4012 83.1905 60.6443C82.5819 61.136 81.9649 61.6016 81.3377 62.03C81.1825 62.1399 81.0254 62.2442 80.8675 62.3476C80.7095 62.451 80.5571 62.5581 80.3954 62.654L79.4495 63.2398C79.3705 63.2873 79.2924 63.3375 79.2134 63.3832L78.9681 63.5136L78.4914 63.779L78.0194 64.0425C77.8633 64.1291 77.7016 64.2055 77.5436 64.2865L76.606 64.7615L75.6768 65.1908C75.5235 65.2606 75.372 65.3333 75.2196 65.4003L75.1174 65.4432C73.5396 63.8221 72.1581 62.02 71.0018 60.0743L70.7602 59.6646ZM153.862 76.3913C153.339 76.7722 152.682 77.277 151.869 77.9261L151.364 78.3713L151.237 78.4821L151.174 78.538C151.169 78.5415 151.163 78.5443 151.157 78.5463C151.14 78.554 151.123 78.5606 151.105 78.5659C151.057 78.5912 151.006 78.6124 150.954 78.6292C150.944 78.6292 150.94 78.6348 150.931 78.6292C150.923 78.621 150.919 78.6108 150.918 78.5999C150.917 78.589 150.919 78.578 150.925 78.5687L150.979 78.4607C150.978 78.478 150.975 78.4951 150.971 78.5119C151.148 77.9671 151.321 77.4353 151.485 76.9287L151.794 75.9713C151.823 75.8782 151.854 75.7851 151.88 75.6975C152.572 75.9555 153.235 76.1855 153.859 76.3913H153.862ZM148.872 74.4971L149.572 74.7951L139.276 85.8876C139.539 85.4611 139.818 85.015 140.112 84.5559C141.282 82.7138 142.677 80.6566 144.072 78.6767C144.772 77.6877 145.471 76.721 146.142 75.8037L147.146 74.4459C147.274 74.2605 147.34 74.0383 147.332 73.8126C147.846 74.0557 148.358 74.2894 148.869 74.4971H148.872ZM139.208 76.9361L139.091 76.8272L138.968 76.7117C138.928 76.6726 138.891 76.6335 138.854 76.5953L138.576 76.3094L138.369 76.0728C138.303 75.9946 138.235 75.922 138.174 75.8456L137.991 75.6202L137.822 75.4042C137.769 75.3334 137.72 75.2608 137.67 75.1928C137.621 75.1248 137.569 75.0484 137.521 74.9805L137.59 74.9469L138.223 74.6368L139.574 73.9747L142.955 72.3216L143.065 72.2676L143.088 72.2564H143.095L143.108 72.2509L143.132 72.2415L143.153 72.2341C143.158 72.2285 143.171 72.2341 143.161 72.2471L143.124 72.2853L143.117 72.2928L143.078 72.3393L141.858 73.7865L139.208 76.9361ZM142.786 75.176C142.831 75.1043 142.893 75.013 142.972 74.8966C143.131 74.6722 143.365 74.3602 143.663 73.9775L143.897 73.6804L144.022 73.523L144.291 73.1943L144.808 72.5712L145.313 72.8338L145.658 73.0117L145.623 73.0369L145.616 73.0424L145.59 73.0639L145.539 73.1076L145.437 73.1933C144.895 73.6469 144.438 74.0203 144.275 74.1348C144.115 74.2514 143.963 74.3777 143.818 74.5129L143.438 74.8557L143.199 75.068L143.068 75.1853C143.026 75.2248 142.982 75.2618 142.935 75.2962C142.848 75.352 142.738 75.312 142.734 75.2682C142.744 75.2353 142.759 75.2042 142.778 75.176H142.786ZM142.061 71.0784L140.426 71.8513L139.231 72.4278C139.082 72.4995 138.931 72.574 138.766 72.6578L138.427 72.832C138.37 72.8608 138.313 72.8916 138.256 72.9186C138.242 72.9242 138.226 72.9269 138.211 72.9266C138.196 72.9263 138.181 72.9229 138.167 72.9168C138.153 72.9107 138.14 72.9018 138.13 72.8908C138.119 72.8797 138.111 72.8667 138.105 72.8525C138.099 72.8395 138.096 72.8253 138.096 72.811C138.096 72.7967 138.099 72.7826 138.105 72.7696C138.119 72.7463 138.138 72.7249 138.153 72.7025C138.186 72.6588 138.219 72.6159 138.246 72.5731L138.431 72.3282C138.529 72.199 138.626 72.0705 138.72 71.9426C138.943 71.652 139.162 71.3655 139.377 71.083L140.192 70.0214L140.229 69.9748L141.617 70.8297L142.061 71.0784ZM136.096 68.6654C136.112 68.6263 136.136 68.5937 136.154 68.5592L136.35 68.2119L136.365 68.1867C136.431 68.0722 136.492 67.9623 136.551 67.8533L136.594 67.7723L136.606 67.7518L136.626 67.7155L136.666 67.6429L136.739 67.5125L137.052 67.7593C137.262 67.9223 137.473 68.089 137.693 68.251L137.6 68.2882L137.218 68.4475L137.043 68.5229L136.393 68.8023C136.345 68.8278 136.294 68.8454 136.241 68.8545C136.216 68.8552 136.192 68.85 136.169 68.8391C136.147 68.8282 136.128 68.8121 136.113 68.7921C136.098 68.7742 136.088 68.7528 136.084 68.73C136.08 68.7072 136.082 68.6837 136.089 68.6617L136.096 68.6654ZM133.9 67.7779C133.796 67.4985 133.699 67.2191 133.596 66.9295L133.525 66.72L133.492 66.6362C133.469 66.5765 133.446 66.516 133.423 66.4555C133.33 66.2078 133.237 65.9312 133.144 65.6322C133.051 65.3333 132.958 65.012 132.878 64.6786C132.837 64.511 132.798 64.3415 132.76 64.1701C132.753 64.1494 132.753 64.1266 132.76 64.1059C132.765 64.0968 132.772 64.0893 132.78 64.0842C132.789 64.079 132.799 64.0765 132.809 64.077C132.828 64.077 132.84 64.0956 132.854 64.1068L132.896 64.1431L133.064 64.293C133.331 64.5277 133.598 64.795 133.859 65.0288C133.995 65.1554 134.127 65.2802 134.253 65.4013L134.439 65.581L134.624 65.7486L134.711 65.8297L134.753 65.8697L134.858 65.9628L135.282 66.3279L135.71 66.6939L135.732 66.7125L135.667 66.8224C135.263 67.4957 134.884 68.1262 134.54 68.6971C134.476 68.8057 134.428 68.923 134.398 69.0454C134.224 68.6387 134.055 68.215 133.892 67.7742L133.9 67.7779ZM134.979 70.3976L135.02 70.4106C135.125 70.4391 135.231 70.4581 135.339 70.4674C135.37 70.4712 135.401 70.4734 135.432 70.474H135.541C135.62 70.4701 135.7 70.4599 135.778 70.4432C135.972 70.3862 136.162 70.3159 136.346 70.2328L138.163 69.4933L138.665 69.2903L138.75 69.2577C138.832 69.224 138.917 69.1966 139.003 69.1758L139.037 69.199C139.04 69.2076 139.04 69.2166 139.037 69.2251C139.031 69.2493 139.009 69.2652 138.994 69.2829L138.906 69.376C138.867 69.4162 138.825 69.4541 138.782 69.4896L138.064 70.3715L137.713 70.8074L137.168 71.4993C136.843 71.9119 136.517 72.3263 136.196 72.7472C135.9 72.2397 135.523 71.5561 135.125 70.717C135.071 70.6071 135.022 70.4982 134.972 70.3939L134.979 70.3976ZM143.577 76.4975C142.872 77.4754 142.176 78.4604 141.488 79.4525C140.651 80.6194 139.598 82.1225 138.486 83.8127C137.395 85.4779 136.24 87.3153 135.217 89.2142C135.778 87.4243 136.467 85.6773 137.278 83.9869L137.594 83.3527C137.645 83.2456 137.701 83.145 137.758 83.0435L137.925 82.7418C138.037 82.5415 138.143 82.3395 138.259 82.1467L138.604 81.5814C138.715 81.3951 138.837 81.2191 138.954 81.044L139.041 80.9137L139.169 80.7274C139.227 80.6464 139.29 80.5672 139.355 80.489C139.42 80.4108 139.482 80.3335 139.541 80.2552L139.913 79.7896L140.006 79.676L140.106 79.5633L140.306 79.3398C140.569 79.0474 140.813 78.7475 141.081 78.4793C142.486 77.0665 143.566 76.4938 143.566 76.4938L143.577 76.4975ZM134.308 92.5258C134.334 92.4132 134.362 92.3023 134.39 92.1878C134.445 91.9652 134.5 91.7389 134.557 91.5117L134.64 91.168C134.664 91.0796 134.691 90.9911 134.717 90.9026C134.717 90.9166 134.725 90.9305 134.73 90.9445C134.809 91.1693 134.952 91.366 135.141 91.5098C134.851 91.8438 134.571 92.1813 134.3 92.5221L134.308 92.5258ZM147.131 81.5758C146.895 81.7183 146.666 81.8738 146.434 82.0191L145.734 82.4577C145.504 82.6086 145.272 82.757 145.038 82.9029C144.497 83.2456 143.867 83.6628 143.18 84.148C143.819 83.443 144.66 82.5266 145.596 81.5097L147.39 79.5735L148.319 78.5696L148.784 78.0667L149.017 77.8162L149.067 77.7669C149.185 77.6486 149.288 77.5461 149.372 77.466C149.376 77.46 149.382 77.4552 149.388 77.4519C149.395 77.4486 149.402 77.4471 149.409 77.4474C149.418 77.4488 149.426 77.4521 149.432 77.4571C149.439 77.4621 149.445 77.4687 149.448 77.4763C149.466 77.5107 149.438 77.548 149.429 77.5806L149.36 77.7575L149.349 77.7836L149.341 77.8013L149.326 77.8292L149.315 77.8507L149.308 77.8702C149.297 77.9019 149.286 77.9335 149.276 77.9633C149.236 78.0835 149.197 78.2008 149.159 78.3144C148.849 79.2457 148.613 79.96 148.474 80.38C148.456 80.4573 148.435 80.5337 148.423 80.5989C148.41 80.6641 148.414 80.7106 148.41 80.7619C148.409 80.7693 148.409 80.7768 148.41 80.7842C148.194 80.9044 147.994 81.0208 147.82 81.1344C147.592 81.2821 147.36 81.428 147.126 81.5721L147.131 81.5758ZM156.343 77.724L155.824 77.8469C155.638 77.8907 155.452 77.9485 155.251 78.0034C154.852 78.118 154.414 78.2344 153.976 78.3862C153.712 78.4737 153.44 78.5631 153.167 78.6581C153.552 78.2288 153.922 77.8069 154.252 77.4167C154.465 77.1643 154.661 76.9259 154.834 76.707C155.927 77.047 156.865 77.3031 157.596 77.4903L157.168 77.5471C156.942 77.5759 156.669 77.6467 156.339 77.7203L156.343 77.724Z" fill="#516865"/>
</g>
<defs>
<clipPath id="clip0_26_543">
<rect width="164" height="103" fill="white"/>
</clipPath>
</defs>
</svg>
