<svg id="Layer_1" enable-background="new 0 0 100 100" viewBox="0 0 100 100" xmlns="http://www.w3.org/2000/svg"><path d="m50 2.5c-26.2299805 0-47.5 21.2700195-47.5 47.5s21.2700195 47.5 47.5 47.5c26.2300415 0 47.5-21.2700195 47.5-47.5s-21.2699585-47.5-47.5-47.5zm29.1600342 33.9699707-34.3400269 34.3400269c-1.0800171 1.080017-2.539978 1.6900024-4.0700073 1.6900024-1.5199585 0-2.9899902-.6099854-4.0599976-1.6900024l-15.8499755-15.8400269c-1.1199951-1.1199951-1.1199951-2.9399414 0-4.0599976l4.0700073-4.0699463c1.1199951-1.1200562 2.9400024-1.1200562 4.0599976 0l11.7799682 11.7799683 30.2800293-30.2799683c1.1199951-1.1200562 2.9400024-1.1200562 4.0599976 0l4.0700073 4.0699463c1.1199951 1.1200562 1.1199951 2.9400025 0 4.0599976z"/></svg>