<svg version="1.2" xmlns="http://www.w3.org/2000/svg" viewBox="0 0 1067 254" width="1067" height="254">
	<title>næmt navn</title>
	<style>
		.s0 { fill: #333333 } 
	</style>
	<path id="næmt.nu" class="s0" aria-label="næmt.nu"  d="m111 210q-4 0-6.6-2.6-2.6-2.6-2.6-6.4v-61.4q0-14.7-5.7-24.2-5.4-9.4-15.1-14.1-9.5-4.8-21.5-4.8-11.6 0-21.1 4.5-9.2 4.5-14.6 12.3-5.5 7.8-5.5 17.7h-13q0.5-14.8 8.1-26.4 7.5-11.8 20.1-18.5 12.5-6.8 27.9-6.8 16.7 0 30 7.1 13.2 6.8 20.8 20.3 7.8 13.5 7.8 32.9v61.4q0 3.8-2.6 6.4-2.6 2.6-6.4 2.6zm-101.6 0q-4.3 0-6.9-2.4-2.4-2.6-2.4-6.6v-111.1q0-4.2 2.4-6.6 2.6-2.6 6.9-2.6 4 0 6.3 2.6 2.6 2.4 2.6 6.6v111.1q0 4-2.6 6.6-2.3 2.4-6.3 2.4zm323.3 1.2q-18.4 0-32.6-8.3-14.2-8.5-22.4-23.4-8.1-14.9-8.1-34 0-19.4 7.6-34.1 7.8-14.9 21-23.4 13.5-8.5 31-8.5 17.9 0 31.2 8.3 13.5 8 20.8 22.4 7.3 14.5 7.3 32.9 0 3.8-2.3 6.2-2.4 2.1-6.2 2.1h-100.5v-15.2h102.4l-9.9 7.4q0-13.7-5.2-24.6-5.2-10.9-14.9-17-9.5-6.2-22.7-6.2-13.5 0-23.7 6.4-10.1 6.4-15.8 17.7-5.4 11.1-5.4 25.6 0 14.4 6.1 25.5 6.4 11.1 17.3 17.5 10.8 6.4 25 6.4 9.7 0 17.8-2.9 8-3 13.2-7.5 2.6-2.2 5.9-2.4 3.3-0.2 5.7 1.9 3.1 2.8 3.1 6.1 0.2 3.4-2.6 5.7-7.8 6.6-19.9 11.1-12.1 4.3-23.2 4.3zm-115.6 0q-18.2 0-32.6-8.5-14.4-8.8-22.9-23.7-8.3-14.9-8.3-33.5 0-18.9 8.5-33.8 8.8-14.9 23.7-23.4 14.9-8.8 33.5-8.8 18.7 0 33.4 8.8 14.9 8.5 23.4 23.4 8.7 14.9 8.9 33.8l-7.3 5.6q0 17.1-8 30.8-7.8 13.4-21.5 21.5-13.5 7.8-30.8 7.8zm1.9-16.6q13.7 0 24.4-6.3 10.9-6.4 17-17.5 6.4-11.4 6.4-25.3 0-14.2-6.4-25.3-6.1-11.1-17-17.5-10.7-6.6-24.4-6.6-13.4 0-24.3 6.6-10.9 6.4-17.3 17.5-6.4 11.1-6.4 25.3 0 13.9 6.4 25.3 6.4 11.1 17.3 17.5 10.9 6.3 24.3 6.3zm56.5 15.4q-4 0-6.6-2.4-2.6-2.6-2.6-6.6v-40.4l4.5-18.7 13.9 3.6v55.5q0 4-2.6 6.6-2.6 2.4-6.6 2.4zm318.4 0q-4 0-6.6-2.4-2.6-2.6-2.6-6.6v-68.1q0-16.7-8.7-26.4-8.8-10-22.5-10-14.6 0-24.1 10-9.2 9.7-9 26h-16.3q0.2-15.9 6.9-27.9 6.6-12.1 18.2-18.7 11.5-6.6 26.2-6.6 13.9 0 24.6 6.6 10.9 6.6 16.8 18.7 6.1 12 6.1 28.3v68.1q0 4-2.6 6.6-2.3 2.4-6.4 2.4zm-165.4 0q-4.3 0-6.9-2.4-2.4-2.6-2.4-6.6v-111.1q0-4 2.4-6.6 2.6-2.6 6.9-2.6 4 0 6.3 2.6 2.6 2.6 2.6 6.6v111.1q0 4-2.6 6.6-2.3 2.4-6.3 2.4zm82.9 0q-4 0-6.6-2.4-2.6-2.6-2.6-6.6v-68.1q0-16.7-8.7-26.4-8.8-10-22.5-10-14.6 0-24.1 9.7-9.5 9.5-9.5 24.8h-13q0.5-15.1 6.7-26.7 6.3-11.8 17.2-18.4 10.9-6.6 24.6-6.6 14 0 24.6 6.6 10.9 6.6 16.8 18.7 6.1 12 6.1 28.3v68.1q0 4-2.6 6.6-2.3 2.4-6.4 2.4zm187.2 0h-4.9q-12.5 0-22.5-5.9-9.7-5.9-15.3-16.1-5.7-10.4-5.7-23.6v-115.6q0-4 2.4-6.6 2.6-2.6 6.6-2.6 4 0 6.6 2.6 2.6 2.6 2.6 6.6v115.6q0 12 7.1 19.8 7.1 7.6 18.2 7.6h6.4q3.7 0 6.1 2.6 2.4 2.6 2.4 6.6 0 4-2.9 6.6-2.8 2.4-7.1 2.4zm-3.5-108.7h-60.3q-3.5 0-5.9-2.2-2.3-2.3-2.3-5.6 0-3.6 2.3-5.7 2.4-2.4 5.9-2.4h60.3q3.5 0 5.9 2.4 2.4 2.1 2.4 5.7 0 3.3-2.4 5.6-2.4 2.2-5.9 2.2zm47.3 112.5q-5.7 0-9.7-4-4-4.1-4-9.7 0-5.9 4-10 4.2-4 9.7-4 5.7 0 9.7 4.3 4 4 4 9.7 0 5.4-4 9.7-3.8 4-9.7 4zm157.6-3.8q-4 0-6.6-2.6-2.6-2.6-2.6-6.4v-61.4q0-14.7-5.6-24.2-5.5-9.4-15.2-14.1-9.4-4.8-21.5-4.8-11.6 0-21 4.5-9.2 4.5-14.7 12.3-5.4 7.8-5.4 17.7h-13q0.5-14.8 8-26.4 7.6-11.8 20.1-18.5 12.5-6.8 27.9-6.8 16.8 0 30 7.1 13.3 6.8 20.8 20.3 7.8 13.5 7.8 32.9v61.4q0 3.8-2.6 6.4-2.6 2.6-6.4 2.6zm-101.6 0q-4.3 0-6.9-2.4-2.3-2.6-2.3-6.6v-111.1q0-4.2 2.3-6.6 2.6-2.6 6.9-2.6 4 0 6.4 2.6 2.6 2.4 2.6 6.6v111.1q0 4-2.6 6.6-2.4 2.4-6.4 2.4zm207.1 1.4q-16.8 0-30-6.8-13.3-7.1-21.1-20.6-7.6-13.5-7.6-32.9v-61.4q0-3.8 2.6-6.4 2.6-2.6 6.4-2.6 4 0 6.6 2.6 2.7 2.6 2.7 6.4v61.4q0 14.7 5.4 24.2 5.7 9.4 15.1 14.1 9.7 4.8 21.8 4.8 11.5 0 20.8-4.5 9.4-4.5 14.9-12.3 5.4-7.8 5.4-17.7h13q-0.7 14.8-8.3 26.7-7.3 11.5-19.8 18.4-12.6 6.6-27.9 6.6zm52-1.4q-4 0-6.6-2.4-2.4-2.6-2.4-6.8v-111.1q0-4 2.4-6.4 2.6-2.6 6.6-2.6 4 0 6.6 2.6 2.6 2.4 2.6 6.4v111.1q0 4.2-2.6 6.8-2.6 2.4-6.6 2.4z"/>
</svg>