<svg width="512" height="512" viewBox="0 0 512 512" fill="none" xmlns="http://www.w3.org/2000/svg">
<g clip-path="url(#clip0_511_101)">
<path d="M256 0C205.368 0 155.873 15.0141 113.774 43.1438C71.6751 71.2734 38.863 111.255 19.487 158.033C0.11092 204.811 -4.95873 256.284 4.91908 305.943C14.7969 355.602 39.1785 401.217 74.9808 437.019C110.783 472.822 156.398 497.203 206.057 507.081C255.716 516.959 307.189 511.889 353.967 492.513C400.745 473.137 440.727 440.325 468.856 398.226C496.986 356.127 512 306.632 512 256C512 188.105 485.029 122.99 437.019 74.9807C389.01 26.9714 323.896 0 256 0ZM181.558 390.737H125.71V210.829H181.558V390.737ZM153.6 186.274C147.173 186.3 140.882 184.421 135.522 180.873C130.163 177.325 125.976 172.267 123.49 166.34C121.004 160.413 120.331 153.881 121.557 147.572C122.782 141.262 125.851 135.457 130.374 130.891C134.898 126.325 140.674 123.203 146.972 121.919C153.27 120.635 159.807 121.246 165.757 123.677C171.707 126.107 176.803 130.247 180.401 135.573C183.999 140.899 185.937 147.173 185.971 153.6C185.989 162.219 182.594 170.494 176.528 176.617C170.462 182.739 162.219 186.211 153.6 186.274ZM390.737 390.737H334.922V303.158C334.922 282.274 334.518 255.495 305.886 255.495C277.255 255.495 272.202 278.198 272.202 301.642V390.737H216.59V210.829H270.181V235.352H270.956C278.4 221.204 296.623 206.282 323.806 206.282C380.329 206.282 390.737 243.537 390.737 291.907V390.737Z" fill="#DCEAE7"/>
</g>
<defs>
<clipPath id="clip0_511_101">
<rect width="512" height="512" fill="white"/>
</clipPath>
</defs>
</svg>
