<svg version="1.2" xmlns="http://www.w3.org/2000/svg" viewBox="0 0 1080 1080" width="1080" height="1080">
	<title>logo</title>
	<style>
		.s0 { fill: #333333 } 
	</style>
	<path id="æ
" class="s0" aria-label="æ
"  d="m823.6 826.4q-84.7 0-149.8-38-65.1-39-103-107.4-36.9-68.3-36.9-156.2 0-89 34.7-156.3 35.8-68.3 96.6-107.4 61.8-39 142.1-39 82.5 0 143.2 37.9 61.9 36.9 95.5 103.1 33.6 66.2 33.6 150.8 0 17.4-10.8 28.3-10.9 9.7-28.2 9.7h-461.2v-69.4h469.9l-45.6 33.6q0-62.9-23.9-112.8-23.9-49.9-68.3-78.2-43.4-28.2-104.2-28.2-61.8 0-108.5 29.3-46.7 29.3-72.7 81.4-25 51-25 117.2 0 66.2 28.3 117.2 29.3 51 79.2 80.3 49.9 29.3 115 29.3 44.5 0 81.3-13.1 36.9-14.1 60.8-34.7 11.9-9.7 27.1-10.8 15.2-1.1 26.1 8.6 14.1 13.1 14.1 28.3 1.1 15.1-12 26-35.8 30.4-91.1 51-55.3 19.5-106.3 19.5zm-530.6 0q-83.5 0-149.7-39-66.2-40.2-105.3-108.5-38-68.4-38-154.1 0-86.8 39.1-155.2 40.2-68.3 108.5-107.4 68.4-40.1 154.1-40.1 85.7 0 153 40.1 68.3 39.1 107.4 107.4 40.1 68.4 41.2 155.2l-33.6 26q0 78.2-36.9 141.1-35.8 61.8-98.7 98.7-61.9 35.8-141.1 35.8zm8.7-75.9q62.9 0 111.7-29.3 49.9-29.3 78.2-80.3 29.3-52.1 29.3-116.1 0-65.1-29.3-116.1-28.3-51-78.2-80.3-48.8-30.4-111.7-30.4-61.9 0-111.8 30.4-49.9 29.3-79.2 80.3-29.3 51-29.3 116.1 0 64 29.3 116.1 29.3 51 79.2 80.3 49.9 29.3 111.8 29.3zm259.3 70.5q-18.4 0-30.4-10.9-11.9-11.9-11.9-30.3v-185.6l20.6-85.7 64 16.3v255q0 18.4-11.9 30.3-12 10.9-30.4 10.9z"/>
</svg>